<?xml version="1.0" encoding="utf-8"?><svg width="208" height="78" fill="none" xmlns="http://www.w3.org/2000/svg" viewBox="0 0 208 78"><g filter="url(#efilter0_i)"><path fill-rule="evenodd" clip-rule="evenodd" d="M193.257 31c0 11.55-9.417 21-20.928 21H33.685c-11.51 0-20.928-9.45-20.928-21s9.418-21 20.928-21h138.644c11.641 0 20.928 9.45 20.928 21z" fill="#070707"/><g opacity=".1" filter="url(#efilter1_f)"><path fill-rule="evenodd" clip-rule="evenodd" d="M187.24 39c0 10.45-8.685 19-19.299 19H40.079c-10.614 0-19.3-8.55-19.3-19s8.686-19 19.3-19h127.862c10.735 0 19.299 8.55 19.299 19z" fill="#070707"/></g><path d="M46.603 37.252c-1.248 0-2.298-.276-3.15-.828a4.523 4.523 0 01-1.8-2.286l2.124-1.242c.492 1.284 1.458 1.926 2.898 1.926.696 0 1.206-.126 1.53-.378.324-.252.486-.57.486-.954 0-.444-.198-.786-.594-1.026-.396-.252-1.104-.522-2.124-.81a13.906 13.906 0 01-1.44-.504 6.88 6.88 0 01-1.17-.666 2.855 2.855 0 01-.882-1.08c-.204-.432-.306-.936-.306-1.512 0-1.14.402-2.046 1.206-2.718.816-.684 1.794-1.026 2.934-1.026 1.02 0 1.914.252 2.682.756.78.492 1.386 1.182 1.818 2.07l-2.088 1.206c-.504-1.08-1.308-1.62-2.412-1.62-.516 0-.924.12-1.224.36a1.092 1.092 0 00-.432.9c0 .396.162.72.486.972.336.24.972.504 1.908.792.384.12.672.216.864.288.204.06.474.162.81.306.348.132.612.258.792.378.192.12.408.282.648.486.24.204.42.414.54.63.132.216.24.48.324.792.096.3.144.63.144.99 0 1.164-.426 2.088-1.278 2.772-.84.684-1.938 1.026-3.294 1.026zm8.292-3.798c.313 1.128 1.158 1.692 2.538 1.692.889 0 1.56-.3 2.017-.9l1.871 1.08c-.887 1.284-2.195 1.926-3.923 1.926-1.489 0-2.683-.45-3.583-1.35-.9-.9-1.35-2.034-1.35-3.402 0-1.356.444-2.484 1.332-3.384.889-.912 2.029-1.368 3.42-1.368 1.32 0 2.407.456 3.258 1.368.864.912 1.297 2.04 1.297 3.384 0 .3-.03.618-.09.954h-6.787zm-.036-1.8h4.59c-.131-.612-.407-1.068-.828-1.368-.407-.3-.876-.45-1.404-.45-.623 0-1.14.162-1.547.486-.409.312-.678.756-.81 1.332zm13.538-3.906c.983 0 1.793.33 2.43.99.648.66.972 1.572.972 2.736V37h-2.323v-5.238c0-.6-.162-1.056-.486-1.368-.323-.324-.755-.486-1.295-.486-.6 0-1.08.186-1.44.558-.36.372-.54.93-.54 1.674V37h-2.323v-9h2.322v1.008c.564-.84 1.459-1.26 2.683-1.26zM80.603 24.4h2.322V37h-2.322v-1.062c-.684.876-1.656 1.314-2.916 1.314-1.212 0-2.25-.456-3.114-1.368-.852-.924-1.278-2.052-1.278-3.384 0-1.332.426-2.454 1.278-3.366.864-.924 1.902-1.386 3.114-1.386 1.26 0 2.232.438 2.916 1.314V24.4zm-4.284 9.936c.48.468 1.08.702 1.8.702s1.314-.234 1.782-.702c.468-.48.702-1.092.702-1.836s-.234-1.35-.702-1.818c-.468-.48-1.062-.72-1.782-.72s-1.32.24-1.8.72c-.468.468-.702 1.074-.702 1.818s.234 1.356.702 1.836zm23.184-6.588c1.032 0 1.854.336 2.466 1.008.624.672.936 1.572.936 2.7V37h-2.322v-5.382c0-.54-.132-.96-.396-1.26-.264-.3-.636-.45-1.116-.45-.528 0-.942.174-1.242.522-.288.348-.432.852-.432 1.512V37h-2.322v-5.382c0-.54-.132-.96-.396-1.26-.264-.3-.636-.45-1.116-.45-.516 0-.93.174-1.242.522-.3.348-.45.852-.45 1.512V37h-2.322v-9h2.322v.954c.54-.804 1.374-1.206 2.502-1.206 1.104 0 1.92.432 2.448 1.296.6-.864 1.494-1.296 2.682-1.296zm7.336 5.706c.312 1.128 1.158 1.692 2.538 1.692.888 0 1.56-.3 2.016-.9l1.872 1.08c-.888 1.284-2.196 1.926-3.924 1.926-1.488 0-2.682-.45-3.582-1.35-.9-.9-1.35-2.034-1.35-3.402 0-1.356.444-2.484 1.332-3.384.888-.912 2.028-1.368 3.42-1.368 1.32 0 2.406.456 3.258 1.368.864.912 1.296 2.04 1.296 3.384 0 .3-.03.618-.09.954h-6.786zm-.036-1.8h4.59c-.132-.612-.408-1.068-.828-1.368-.408-.3-.876-.45-1.404-.45-.624 0-1.14.162-1.548.486-.408.312-.678.756-.81 1.332zm10.323-1.098c0 .24.156.438.468.594a7.79 7.79 0 001.17.396c.456.108.912.252 1.368.432.456.168.84.456 1.152.864.324.408.486.918.486 1.53 0 .924-.348 1.638-1.044 2.142-.684.492-1.542.738-2.574.738-1.848 0-3.108-.714-3.78-2.142l2.016-1.134c.264.78.852 1.17 1.764 1.17.828 0 1.242-.258 1.242-.774 0-.24-.162-.432-.486-.576a6.03 6.03 0 00-1.152-.414c-.456-.12-.912-.27-1.368-.45a2.909 2.909 0 01-1.17-.846c-.312-.396-.468-.888-.468-1.476 0-.888.324-1.584.972-2.088.66-.516 1.476-.774 2.448-.774.732 0 1.398.168 1.998.504.6.324 1.074.792 1.422 1.404l-1.98 1.08c-.288-.612-.768-.918-1.44-.918-.3 0-.552.066-.756.198a.622.622 0 00-.288.54zm7.805 0c0 .24.156.438.468.594a7.79 7.79 0 001.17.396c.456.108.912.252 1.368.432.456.168.84.456 1.152.864.324.408.486.918.486 1.53 0 .924-.348 1.638-1.044 2.142-.684.492-1.542.738-2.574.738-1.848 0-3.108-.714-3.78-2.142l2.016-1.134c.264.78.852 1.17 1.764 1.17.828 0 1.242-.258 1.242-.774 0-.24-.162-.432-.486-.576a6.03 6.03 0 00-1.152-.414c-.456-.12-.912-.27-1.368-.45a2.909 2.909 0 01-1.17-.846c-.312-.396-.468-.888-.468-1.476 0-.888.324-1.584.972-2.088.66-.516 1.476-.774 2.448-.774.732 0 1.398.168 1.998.504.6.324 1.074.792 1.422 1.404l-1.98 1.08c-.288-.612-.768-.918-1.44-.918-.3 0-.552.066-.756.198a.622.622 0 00-.288.54zM137.785 28h2.322v9h-2.322v-1.062c-.696.876-1.674 1.314-2.934 1.314-1.2 0-2.232-.456-3.096-1.368-.852-.924-1.278-2.052-1.278-3.384 0-1.332.426-2.454 1.278-3.366.864-.924 1.896-1.386 3.096-1.386 1.26 0 2.238.438 2.934 1.314V28zm-4.284 6.336c.468.468 1.062.702 1.782.702s1.314-.234 1.782-.702c.48-.48.72-1.092.72-1.836s-.24-1.35-.72-1.818c-.468-.48-1.062-.72-1.782-.72s-1.314.24-1.782.72c-.468.468-.702 1.074-.702 1.818s.234 1.356.702 1.836zM149.107 28h2.268v8.568c0 1.392-.462 2.454-1.386 3.186-.912.732-2.016 1.098-3.312 1.098-.972 0-1.83-.186-2.574-.558a3.912 3.912 0 01-1.692-1.638l1.98-1.134c.456.84 1.242 1.26 2.358 1.26.732 0 1.308-.192 1.728-.576.42-.384.63-.93.63-1.638v-.972c-.684.912-1.644 1.368-2.88 1.368-1.272 0-2.34-.444-3.204-1.332-.852-.9-1.278-1.992-1.278-3.276 0-1.272.432-2.358 1.296-3.258.864-.9 1.926-1.35 3.186-1.35 1.236 0 2.196.456 2.88 1.368V28zm-4.338 6.138c.48.456 1.086.684 1.818.684s1.332-.228 1.8-.684c.48-.468.72-1.062.72-1.782 0-.708-.24-1.29-.72-1.746-.468-.468-1.068-.702-1.8-.702s-1.338.234-1.818.702c-.468.456-.702 1.038-.702 1.746 0 .72.234 1.314.702 1.782zm10.673-.684c.312 1.128 1.158 1.692 2.538 1.692.888 0 1.56-.3 2.016-.9l1.872 1.08c-.888 1.284-2.196 1.926-3.924 1.926-1.488 0-2.682-.45-3.582-1.35-.9-.9-1.35-2.034-1.35-3.402 0-1.356.444-2.484 1.332-3.384.888-.912 2.028-1.368 3.42-1.368 1.32 0 2.406.456 3.258 1.368.864.912 1.296 2.04 1.296 3.384 0 .3-.03.618-.09.954h-6.786zm-.036-1.8h4.59c-.132-.612-.408-1.068-.828-1.368-.408-.3-.876-.45-1.404-.45-.624 0-1.14.162-1.548.486-.408.312-.678.756-.81 1.332z" fill="#fff"/></g><defs><filter id="efilter0_i" x="12.757" y="10" width="180.5" height="52" filterUnits="userSpaceOnUse" color-interpolation-filters="sRGB"><feFlood flood-opacity="0" result="BackgroundImageFix"/><feBlend in="SourceGraphic" in2="BackgroundImageFix" result="shape"/><feColorMatrix in="SourceAlpha" values="0 0 0 0 0 0 0 0 0 0 0 0 0 0 0 0 0 0 127 0" result="hardAlpha"/><feOffset dy="4"/><feGaussianBlur stdDeviation="2"/><feComposite in2="hardAlpha" operator="arithmetic" k2="-1" k3="1"/><feColorMatrix values="0 0 0 0 0 0 0 0 0 0 0 0 0 0 0 0 0 0 0.25 0"/><feBlend in2="shape" result="effect1_innerShadow"/></filter><filter id="efilter1_f" x=".78" y="0" width="206.461" height="78" filterUnits="userSpaceOnUse" color-interpolation-filters="sRGB"><feFlood flood-opacity="0" result="BackgroundImageFix"/><feBlend in="SourceGraphic" in2="BackgroundImageFix" result="shape"/><feGaussianBlur stdDeviation="10" result="effect1_foregroundBlur"/></filter></defs></svg>