<?xml version="1.0" encoding="utf-8"?><svg viewBox="0 0 208 207" xmlns="http://www.w3.org/2000/svg" xmlns:xlink="http://www.w3.org/1999/xlink"><style>:root>svg{display:none}:root>svg:target{display:block}</style><svg fill="none" viewBox="0 0 168 207" id="Group_4" xmlns="http://www.w3.org/2000/svg"><path d="M42.934 4.426H124.6V85.28H42.934V4.426z" fill="url(#apaint0_radial)"/><path d="M42.934 4.426H124.6V85.28H42.934V4.426zM39.221 89.06h89.073V.646H39.221V89.06zM99.288 36.93c-2.928 0-3.927 1.508-3.927 2.762 0 1.363.66 2.307 4.605 4.379 5.819 2.87 7.64 5.632 7.64 9.666 0 6.05-4.534 9.303-10.657 9.303-3.23 0-6.015-.672-7.604-1.617-.268-.11-.303-.31-.303-.6v-5.578c0-.382.178-.49.446-.309a13.66 13.66 0 007.461 2.235c2.928 0 4.159-1.254 4.159-2.944 0-1.362-.856-2.561-4.605-4.542-5.266-2.562-7.462-5.16-7.462-9.52 0-4.87 3.75-8.922 10.247-8.922 3.195 0 5.426.49 6.64 1.054.303.182.375.49.375.763v5.178c0 .31-.179.49-.554.382-1.642-1.054-4.052-1.69-6.461-1.69zM67.37 41.42c.857.073 1.517.073 3 .073 4.337 0 8.424-1.545 8.424-7.559 0-4.797-2.927-7.213-7.872-7.213-1.481 0-2.891.073-3.57.109l.018 14.59zm-6.622-20.06c0-.272.517-.454.82-.454 2.375-.108 5.91-.181 9.569-.181 10.281 0 14.298 5.741 14.298 13.064 0 9.593-6.837 13.718-15.227 13.718-1.41 0-1.892-.073-2.891-.073v14.5c0 .308-.108.454-.447.454h-5.676c-.303 0-.446-.11-.446-.455V21.36z" fill="#31C5F0"/><path d="M69.047 124.266l-.588-1.764h-3.906l-.588 1.764h-2.086l3.43-9.8h2.394l3.444 9.8h-2.1zm-3.878-3.57h2.688l-1.344-4.004-1.344 4.004zm11.96-6.23h1.806v9.8H77.13v-.826c-.532.681-1.288 1.022-2.268 1.022-.943 0-1.75-.355-2.422-1.064-.663-.719-.994-1.596-.994-2.632s.331-1.909.994-2.618c.672-.719 1.48-1.078 2.422-1.078.98 0 1.736.34 2.268 1.022v-3.626zm-3.332 7.728c.373.364.84.546 1.4.546.56 0 1.022-.182 1.386-.546.364-.374.546-.85.546-1.428 0-.579-.182-1.05-.546-1.414-.364-.374-.826-.56-1.386-.56-.56 0-1.027.186-1.4.56-.364.364-.546.835-.546 1.414 0 .578.182 1.054.546 1.428zm12.754 1.204c-.719.709-1.596 1.064-2.632 1.064s-1.914-.355-2.632-1.064c-.71-.719-1.064-1.596-1.064-2.632s.354-1.909 1.064-2.618c.718-.719 1.596-1.078 2.632-1.078s1.913.359 2.632 1.078c.718.709 1.078 1.582 1.078 2.618 0 1.036-.36 1.913-1.078 2.632zm-3.99-1.246c.364.364.816.546 1.358.546.541 0 .994-.182 1.358-.546.364-.364.546-.826.546-1.386 0-.56-.182-1.022-.546-1.386-.364-.364-.817-.546-1.358-.546-.542 0-.994.182-1.358.546-.355.364-.532.826-.532 1.386 0 .56.177 1.022.532 1.386zm10.412-5.082c.943 0 1.746.359 2.408 1.078.672.709 1.008 1.582 1.008 2.618 0 1.036-.336 1.913-1.008 2.632-.662.709-1.465 1.064-2.408 1.064-.98 0-1.736-.341-2.268-1.022v.826H88.9v-9.8h1.806v3.626c.532-.682 1.288-1.022 2.268-1.022zm-1.722 5.124c.364.364.826.546 1.386.546.56 0 1.022-.182 1.386-.546.374-.374.56-.85.56-1.428 0-.579-.186-1.05-.56-1.414-.364-.374-.826-.56-1.386-.56-.56 0-1.022.186-1.386.56-.364.364-.546.835-.546 1.414 0 .578.182 1.054.546 1.428zm7.938-.686c.243.877.901 1.316 1.974 1.316.691 0 1.213-.234 1.568-.7l1.456.84c-.691.998-1.708 1.498-3.052 1.498-1.157 0-2.086-.35-2.786-1.05-.7-.7-1.05-1.582-1.05-2.646 0-1.055.345-1.932 1.036-2.632.69-.71 1.577-1.064 2.66-1.064 1.027 0 1.871.354 2.534 1.064.672.709 1.008 1.586 1.008 2.632 0 .233-.023.48-.07.742h-5.278zm-.028-1.4h3.57c-.103-.476-.317-.831-.644-1.064a1.79 1.79 0 00-1.092-.35c-.485 0-.887.126-1.204.378-.317.242-.527.588-.63 1.036zm-45.85 11.358c.942 0 1.735.317 2.38.952.643.634.965 1.414.965 2.338 0 .924-.322 1.703-.966 2.338-.644.634-1.437.952-2.38.952h-1.722v3.22h-1.932v-9.8h3.654zm0 4.774c.41 0 .75-.14 1.021-.42a1.5 1.5 0 00.406-1.064c0-.43-.135-.784-.406-1.064-.27-.28-.611-.42-1.022-.42h-1.722v2.968h1.722zm8.41-2.17c.766 0 1.396.256 1.89.77.505.513.757 1.222.757 2.128v4.298h-1.806v-4.074c0-.467-.126-.822-.378-1.064-.252-.252-.588-.378-1.008-.378-.467 0-.84.144-1.12.434-.28.289-.42.723-.42 1.302v3.78H57.83v-9.8h1.806v3.584c.439-.654 1.134-.98 2.086-.98zm10.153 6.328c-.719.709-1.596 1.064-2.632 1.064s-1.913-.355-2.632-1.064c-.71-.719-1.064-1.596-1.064-2.632s.355-1.909 1.064-2.618c.719-.719 1.596-1.078 2.632-1.078s1.913.359 2.632 1.078c.719.709 1.078 1.582 1.078 2.618 0 1.036-.36 1.913-1.078 2.632zm-3.99-1.246c.364.364.817.546 1.358.546.541 0 .994-.182 1.358-.546.364-.364.546-.826.546-1.386 0-.56-.182-1.022-.546-1.386-.364-.364-.817-.546-1.358-.546-.541 0-.994.182-1.358.546-.355.364-.532.826-.532 1.386 0 .56.177 1.022.532 1.386zm10.192-3.15h-1.582v2.912c0 .242.06.42.182.532.121.112.299.177.532.196.233.009.523.004.868-.014v1.638c-1.241.14-2.119.023-2.632-.35-.504-.374-.756-1.041-.756-2.002v-2.912H73.47v-1.736h1.218v-1.414l1.806-.546v1.96h1.582v1.736zm7.019 4.396c-.719.709-1.596 1.064-2.632 1.064s-1.914-.355-2.632-1.064c-.71-.719-1.064-1.596-1.064-2.632s.354-1.909 1.064-2.618c.718-.719 1.596-1.078 2.632-1.078s1.913.359 2.632 1.078c.718.709 1.078 1.582 1.078 2.618 0 1.036-.36 1.913-1.078 2.632zm-3.99-1.246c.364.364.816.546 1.358.546.541 0 .994-.182 1.358-.546.364-.364.546-.826.546-1.386 0-.56-.182-1.022-.546-1.386-.364-.364-.817-.546-1.358-.546-.542 0-.994.182-1.358.546-.355.364-.532.826-.532 1.386 0 .56.177 1.022.532 1.386zm7.854-2.898c0 .186.121.34.364.462.252.112.555.214.91.308.355.084.71.196 1.064.336.355.13.653.354.896.672.252.317.378.714.378 1.19 0 .718-.27 1.274-.812 1.666-.532.382-1.2.574-2.002.574-1.438 0-2.418-.556-2.94-1.666l1.568-.882c.205.606.662.91 1.372.91.644 0 .966-.201.966-.602 0-.187-.126-.336-.378-.448a4.623 4.623 0 00-.896-.322 9.578 9.578 0 01-1.064-.35 2.269 2.269 0 01-.91-.658c-.243-.308-.364-.691-.364-1.148 0-.691.252-1.232.756-1.624.513-.402 1.148-.602 1.904-.602.57 0 1.087.13 1.554.392.466.252.835.616 1.106 1.092l-1.54.84c-.224-.476-.598-.714-1.12-.714-.234 0-.43.051-.588.154a.482.482 0 00-.224.42zm8.665-2.184c.766 0 1.396.256 1.89.77.504.513.756 1.222.756 2.128v4.298h-1.806v-4.074c0-.467-.126-.822-.378-1.064-.252-.252-.588-.378-1.008-.378-.466 0-.84.144-1.12.434-.28.289-.42.723-.42 1.302v3.78h-1.806v-9.8h1.806v3.584c.439-.654 1.134-.98 2.086-.98zm10.152 6.328c-.718.709-1.596 1.064-2.632 1.064s-1.913-.355-2.632-1.064c-.709-.719-1.064-1.596-1.064-2.632s.355-1.909 1.064-2.618c.719-.719 1.596-1.078 2.632-1.078s1.914.359 2.632 1.078c.719.709 1.078 1.582 1.078 2.618 0 1.036-.359 1.913-1.078 2.632zm-3.99-1.246c.364.364.817.546 1.358.546.542 0 .994-.182 1.358-.546.364-.364.546-.826.546-1.386 0-.56-.182-1.022-.546-1.386-.364-.364-.816-.546-1.358-.546-.541 0-.994.182-1.358.546-.354.364-.532.826-.532 1.386 0 .56.178 1.022.532 1.386zm10.413-5.082c.942 0 1.745.359 2.408 1.078.672.709 1.008 1.582 1.008 2.618 0 1.036-.336 1.913-1.008 2.632-.663.709-1.466 1.064-2.408 1.064-.98 0-1.736-.341-2.268-1.022v3.626h-1.806v-9.8h1.806v.826c.532-.682 1.288-1.022 2.268-1.022zm-1.722 5.124c.364.364.826.546 1.386.546.56 0 1.022-.182 1.386-.546.373-.374.56-.85.56-1.428 0-.579-.187-1.05-.56-1.414-.364-.374-.826-.56-1.386-.56-.56 0-1.022.186-1.386.56-.364.364-.546.835-.546 1.414 0 .578.182 1.054.546 1.428z" fill="#828282"/><path d="M12.793 183.859c.3-.92 1.602-.92 1.902 0l1.751 5.375a1 1 0 00.95.69h5.662c.969 0 1.371 1.241.586 1.81l-4.575 3.314a1 1 0 00-.364 1.12l1.749 5.367c.3.92-.753 1.687-1.538 1.119l-4.585-3.322a.999.999 0 00-1.174 0l-4.585 3.322c-.784.568-1.838-.199-1.538-1.119l1.749-5.367a1 1 0 00-.364-1.12l-4.575-3.314c-.785-.569-.383-1.81.587-1.81h5.66a1 1 0 00.951-.69l1.751-5.375zM47.89 183.859c.3-.92 1.602-.92 1.902 0l1.751 5.375a1 1 0 00.95.69h5.662c.969 0 1.371 1.241.586 1.81l-4.575 3.314a1 1 0 00-.364 1.12l1.749 5.367c.3.92-.753 1.687-1.538 1.119l-4.585-3.322a.999.999 0 00-1.174 0l-4.585 3.322c-.784.568-1.838-.199-1.538-1.119l1.749-5.367a1 1 0 00-.364-1.12l-4.575-3.314c-.785-.569-.383-1.81.587-1.81h5.66a1 1 0 00.951-.69l1.751-5.375zM82.987 183.859c.3-.92 1.602-.92 1.902 0l1.751 5.375a1 1 0 00.95.69h5.662c.969 0 1.371 1.241.586 1.81l-4.575 3.314a1 1 0 00-.364 1.12l1.749 5.367c.3.92-.753 1.687-1.537 1.119l-4.586-3.322a.999.999 0 00-1.174 0l-4.585 3.322c-.784.568-1.838-.199-1.538-1.119l1.749-5.367a1 1 0 00-.364-1.12l-4.575-3.314c-.785-.569-.383-1.81.587-1.81h5.66a1 1 0 00.951-.69l1.751-5.375zM118.085 183.859c.299-.92 1.601-.92 1.901 0l1.751 5.375a1 1 0 00.951.69h5.661c.969 0 1.372 1.241.587 1.81l-4.575 3.314a.999.999 0 00-.364 1.12l1.748 5.367c.3.92-.753 1.687-1.537 1.119l-4.586-3.322a.998.998 0 00-1.173 0l-4.586 3.322c-.784.568-1.837-.199-1.537-1.119l1.748-5.367a.999.999 0 00-.364-1.12l-4.575-3.314c-.785-.569-.382-1.81.587-1.81h5.661a1 1 0 00.95-.69l1.752-5.375z" fill="#070707"/><path d="M153.182 183.859c.3-.92 1.601-.92 1.901 0l1.751 5.375c.135.411.518.69.951.69h5.661c.969 0 1.372 1.241.587 1.81l-4.575 3.314a.999.999 0 00-.364 1.12l1.748 5.367c.3.92-.753 1.687-1.537 1.119l-4.586-3.322a.998.998 0 00-1.173 0l-4.586 3.322c-.784.568-1.837-.199-1.537-1.119l1.748-5.367a.999.999 0 00-.364-1.12l-4.575-3.314c-.785-.569-.382-1.81.587-1.81h5.661a1 1 0 00.951-.69l1.751-5.375z" fill="#E5E5E5"/><defs><radialGradient id="apaint0_radial" cx="0" cy="0" r="1" gradientUnits="userSpaceOnUse" gradientTransform="matrix(62.0565 0 0 61.1565 69.838 22.566)"><stop stop-color="#34364E" stop-opacity=".98"/><stop offset="1" stop-color="#0C0824"/></radialGradient></defs></svg><svg fill="none" viewBox="0 0 167 207" id="Group_5" xmlns="http://www.w3.org/2000/svg"><path d="M67.866 123.268l-.588-1.764h-3.906l-.588 1.764h-2.086l3.43-9.8h2.394l3.444 9.8h-2.1zm-3.878-3.57h2.688l-1.344-4.004-1.344 4.004zm11.96-6.23h1.807v9.8h-1.806v-.826c-.532.681-1.288 1.022-2.268 1.022-.943 0-1.75-.355-2.422-1.064-.663-.719-.994-1.596-.994-2.632s.33-1.909.994-2.618c.672-.719 1.479-1.078 2.422-1.078.98 0 1.736.34 2.268 1.022v-3.626zm-3.331 7.728c.373.364.84.546 1.4.546.56 0 1.022-.182 1.386-.546.364-.374.546-.85.546-1.428 0-.579-.182-1.05-.546-1.414-.364-.374-.826-.56-1.386-.56-.56 0-1.027.186-1.4.56-.364.364-.546.835-.546 1.414 0 .578.182 1.054.546 1.428zM85.37 122.4c-.718.709-1.596 1.064-2.632 1.064s-1.913-.355-2.632-1.064c-.71-.719-1.064-1.596-1.064-2.632s.355-1.909 1.064-2.618c.719-.719 1.596-1.078 2.632-1.078s1.914.359 2.632 1.078c.719.709 1.078 1.582 1.078 2.618 0 1.036-.36 1.913-1.078 2.632zm-3.99-1.246c.364.364.817.546 1.358.546.542 0 .994-.182 1.358-.546.364-.364.546-.826.546-1.386 0-.56-.182-1.022-.546-1.386-.364-.364-.816-.546-1.358-.546-.541 0-.994.182-1.358.546-.354.364-.532.826-.532 1.386 0 .56.178 1.022.532 1.386zm10.413-5.082c.942 0 1.745.359 2.408 1.078.672.709 1.008 1.582 1.008 2.618 0 1.036-.336 1.913-1.008 2.632-.663.709-1.466 1.064-2.408 1.064-.98 0-1.736-.341-2.268-1.022v.826h-1.806v-9.8h1.806v3.626c.532-.682 1.288-1.022 2.268-1.022zm-1.722 5.124c.364.364.826.546 1.386.546.56 0 1.022-.182 1.386-.546.373-.374.56-.85.56-1.428 0-.579-.187-1.05-.56-1.414-.364-.374-.826-.56-1.386-.56-.56 0-1.022.186-1.386.56-.364.364-.546.835-.546 1.414 0 .578.182 1.054.546 1.428zm7.937-.686c.243.877.901 1.316 1.974 1.316.691 0 1.214-.234 1.568-.7l1.456.84c-.69.998-1.708 1.498-3.052 1.498-1.157 0-2.086-.35-2.786-1.05-.7-.7-1.05-1.582-1.05-2.646 0-1.055.346-1.932 1.036-2.632.691-.71 1.578-1.064 2.66-1.064 1.027 0 1.872.354 2.534 1.064.672.709 1.008 1.586 1.008 2.632 0 .233-.023.48-.07.742h-5.278zm-.028-1.4h3.57c-.102-.476-.317-.831-.644-1.064a1.79 1.79 0 00-1.092-.35c-.485 0-.886.126-1.204.378-.317.242-.527.588-.63 1.036zM53.8 130.468h1.933v9.8H53.8v-9.8zm3.663 9.8v-10.22h1.806v10.22h-1.806zm3.459 0v-10.22h1.806v10.22h-1.806zm8.079-7h1.806v7H69v-.784c-.439.653-1.134.98-2.086.98-.766 0-1.4-.257-1.904-.77-.495-.514-.742-1.223-.742-2.128v-4.298h1.806v4.074c0 .466.126.826.378 1.078.252.242.588.364 1.008.364.466 0 .84-.145 1.12-.434.28-.29.42-.724.42-1.302v-3.78zm5.071 1.988c0 .186.122.34.364.462.252.112.556.214.91.308.355.084.71.196 1.064.336.355.13.654.354.896.672.252.317.378.714.378 1.19 0 .718-.27 1.274-.812 1.666-.532.382-1.2.574-2.002.574-1.437 0-2.417-.556-2.94-1.666l1.568-.882c.206.606.663.91 1.372.91.644 0 .966-.201.966-.602 0-.187-.126-.336-.378-.448a4.62 4.62 0 00-.896-.322 9.585 9.585 0 01-1.064-.35 2.27 2.27 0 01-.91-.658c-.242-.308-.364-.691-.364-1.148 0-.691.252-1.232.756-1.624.514-.402 1.148-.602 1.904-.602.57 0 1.088.13 1.554.392.467.252.836.616 1.106 1.092l-1.54.84c-.224-.476-.597-.714-1.12-.714-.233 0-.43.051-.588.154a.482.482 0 00-.224.42zm8.573-.252h-1.582v2.912c0 .242.06.42.182.532.12.112.298.177.532.196.233.009.522.004.868-.014v1.638c-1.242.14-2.12.023-2.632-.35-.504-.374-.756-1.041-.756-2.002v-2.912h-1.218v-1.736h1.218v-1.414l1.806-.546v1.96h1.582v1.736zm3.188-.532c.168-.448.444-.784.826-1.008a2.578 2.578 0 011.302-.336v2.016a2.144 2.144 0 00-1.484.336c-.429.289-.644.77-.644 1.442v3.346h-1.806v-7h1.806v1.204zm8.245-1.204h1.806v7h-1.806v-.826c-.541.681-1.302 1.022-2.282 1.022-.934 0-1.736-.355-2.408-1.064-.663-.719-.994-1.596-.994-2.632s.331-1.909.994-2.618c.672-.719 1.474-1.078 2.408-1.078.98 0 1.74.34 2.282 1.022v-.826zm-3.332 4.928c.364.364.826.546 1.386.546.56 0 1.022-.182 1.386-.546.373-.374.56-.85.56-1.428 0-.579-.187-1.05-.56-1.414-.364-.374-.826-.56-1.386-.56-.56 0-1.022.186-1.386.56-.364.364-.546.835-.546 1.414 0 .578.182 1.054.546 1.428zm10.779-3.192h-1.582v2.912c0 .242.061.42.182.532.122.112.299.177.532.196.234.009.523.004.868-.014v1.638c-1.241.14-2.118.023-2.632-.35-.504-.374-.755-1.041-.755-2.002v-2.912h-1.219v-1.736h1.219v-1.414l1.805-.546v1.96h1.582v1.736zm7.019 4.396c-.719.709-1.596 1.064-2.632 1.064s-1.913-.355-2.632-1.064c-.709-.719-1.064-1.596-1.064-2.632s.355-1.909 1.064-2.618c.719-.719 1.596-1.078 2.632-1.078s1.913.359 2.632 1.078c.719.709 1.078 1.582 1.078 2.618 0 1.036-.359 1.913-1.078 2.632zm-3.99-1.246c.364.364.817.546 1.358.546.541 0 .994-.182 1.358-.546.364-.364.546-.826.546-1.386 0-.56-.182-1.022-.546-1.386-.364-.364-.817-.546-1.358-.546-.541 0-.994.182-1.358.546-.355.364-.532.826-.532 1.386 0 .56.177 1.022.532 1.386zm8.145-3.682c.168-.448.443-.784.826-1.008a2.578 2.578 0 011.302-.336v2.016a2.143 2.143 0 00-1.484.336c-.43.289-.644.77-.644 1.442v3.346h-1.806v-7h1.806v1.204z" fill="#828282"/><path d="M43.003 4.454h81.761v81.005h-81.76V4.454z" fill="url(#bpaint0_radial)"/><path d="M43.003 4.454h81.761v81.005h-81.76V4.454zm-3.715 84.788h89.209V.67h-89.21v88.572zm58.43-56.992c0-.31.108-.455.447-.455h5.842c.303 0 .446.109.446.455v29.87c0 .309-.071.454-.446.454h-5.77c-.375 0-.483-.182-.483-.491V32.25h-.035zm-.41-8.605c0-2.42 1.679-3.856 3.787-3.856 2.268 0 3.787 1.546 3.787 3.856 0 2.492-1.59 3.857-3.859 3.857-2.143.018-3.715-1.346-3.715-3.857zm-16.72 21.047c-1.036-4.202-3.501-13.352-4.43-17.79h-.072c-.786 4.42-2.75 11.915-4.305 17.79h8.807zm-10.325 6.13l-2.93 11.352c-.071.31-.178.382-.554.382h-5.466c-.375 0-.446-.11-.375-.564l10.557-37.62c.179-.672.304-1.29.375-3.146 0-.273.108-.382.304-.382h7.806c.268 0 .376.073.447.382l11.825 40.839c.072.31 0 .491-.303.491h-6.163c-.304 0-.482-.073-.554-.346l-3.054-11.387H70.263z" fill="#FF7F18"/><path d="M12.504 183.86c.3-.92 1.601-.92 1.901 0l1.751 5.374a1 1 0 00.951.69h5.661c.97 0 1.372 1.241.587 1.81l-4.575 3.315a1 1 0 00-.364 1.119l1.748 5.367c.3.921-.753 1.688-1.537 1.12l-4.586-3.323a1.002 1.002 0 00-1.173 0l-4.586 3.323c-.784.568-1.837-.199-1.537-1.12l1.748-5.367a1 1 0 00-.364-1.119l-4.575-3.315c-.785-.569-.382-1.81.587-1.81h5.66a1 1 0 00.952-.69l1.75-5.374zM47.6 183.86c.3-.92 1.603-.92 1.902 0l1.752 5.374a1 1 0 00.95.69h5.661c.97 0 1.372 1.241.587 1.81l-4.575 3.315a1 1 0 00-.364 1.119l1.748 5.367c.3.921-.753 1.688-1.537 1.12l-4.586-3.323a1.002 1.002 0 00-1.173 0l-4.586 3.323c-.784.568-1.837-.199-1.537-1.12l1.748-5.367a1 1 0 00-.364-1.119l-4.575-3.315c-.785-.569-.382-1.81.587-1.81H44.9a1 1 0 00.95-.69l1.752-5.374zM82.698 183.86c.3-.92 1.602-.92 1.902 0l1.75 5.374a1 1 0 00.952.69h5.66c.97 0 1.372 1.241.587 1.81l-4.575 3.315a1 1 0 00-.364 1.119l1.749 5.367c.3.921-.754 1.688-1.538 1.12l-4.585-3.323a1.002 1.002 0 00-1.174 0l-4.585 3.323c-.785.568-1.838-.199-1.538-1.12l1.749-5.367a1 1 0 00-.364-1.119l-4.575-3.315c-.785-.569-.383-1.81.586-1.81h5.661a1 1 0 00.951-.69l1.751-5.374z" fill="#070707"/><path d="M117.795 183.86c.3-.92 1.602-.92 1.902 0l1.751 5.374a1 1 0 00.951.69h5.661c.969 0 1.371 1.241.586 1.81l-4.575 3.315a1.001 1.001 0 00-.364 1.119l1.749 5.367c.3.921-.753 1.688-1.538 1.12l-4.585-3.323a1.003 1.003 0 00-1.174 0l-4.585 3.323c-.784.568-1.838-.199-1.538-1.12l1.749-5.367a1.001 1.001 0 00-.364-1.119l-4.575-3.315c-.785-.569-.383-1.81.587-1.81h5.66a1 1 0 00.951-.69l1.751-5.374zM152.892 183.86c.3-.92 1.602-.92 1.902 0l1.751 5.374a1 1 0 00.951.69h5.661c.969 0 1.371 1.241.586 1.81l-4.574 3.315a1 1 0 00-.365 1.119l1.749 5.367c.3.921-.753 1.688-1.538 1.12l-4.585-3.323a1.003 1.003 0 00-1.174 0l-4.585 3.323c-.784.568-1.838-.199-1.538-1.12l1.749-5.367a1.001 1.001 0 00-.364-1.119l-4.575-3.315c-.785-.569-.383-1.81.587-1.81h5.661a1 1 0 00.95-.69l1.751-5.374z" fill="#E5E5E5"/><defs><radialGradient id="bpaint0_radial" cx="0" cy="0" r="1" gradientUnits="userSpaceOnUse" gradientTransform="matrix(62.1406 0 0 61.2673 69.958 22.63)"><stop stop-color="#423325" stop-opacity=".98"/><stop offset="1" stop-color="#1C0A00"/></radialGradient></defs></svg><svg fill="none" viewBox="0 0 167 207" id="Group_6" xmlns="http://www.w3.org/2000/svg"><path d="M67.933 123.268l-.588-1.764h-3.906l-.588 1.764h-2.086l3.43-9.8h2.394l3.444 9.8h-2.1zm-3.878-3.57h2.688l-1.344-4.004-1.344 4.004zm11.96-6.23h1.806v9.8h-1.806v-.826c-.532.681-1.288 1.022-2.268 1.022-.943 0-1.75-.355-2.422-1.064-.663-.719-.994-1.596-.994-2.632s.331-1.909.994-2.618c.672-.719 1.48-1.078 2.422-1.078.98 0 1.736.34 2.268 1.022v-3.626zm-3.332 7.728c.373.364.84.546 1.4.546.56 0 1.022-.182 1.386-.546.364-.374.546-.85.546-1.428 0-.579-.182-1.05-.546-1.414-.364-.374-.826-.56-1.386-.56-.56 0-1.027.186-1.4.56-.364.364-.546.835-.546 1.414 0 .578.182 1.054.546 1.428zm12.754 1.204c-.719.709-1.596 1.064-2.632 1.064s-1.914-.355-2.632-1.064c-.71-.719-1.064-1.596-1.064-2.632s.354-1.909 1.064-2.618c.718-.719 1.596-1.078 2.632-1.078s1.913.359 2.632 1.078c.718.709 1.078 1.582 1.078 2.618 0 1.036-.36 1.913-1.078 2.632zm-3.99-1.246c.364.364.816.546 1.358.546.541 0 .994-.182 1.358-.546.364-.364.546-.826.546-1.386 0-.56-.182-1.022-.546-1.386-.364-.364-.817-.546-1.358-.546-.542 0-.994.182-1.358.546-.355.364-.532.826-.532 1.386 0 .56.177 1.022.532 1.386zm10.412-5.082c.943 0 1.746.359 2.408 1.078.672.709 1.008 1.582 1.008 2.618 0 1.036-.336 1.913-1.008 2.632-.662.709-1.465 1.064-2.408 1.064-.98 0-1.736-.341-2.268-1.022v.826h-1.806v-9.8h1.806v3.626c.532-.682 1.288-1.022 2.268-1.022zm-1.722 5.124c.364.364.826.546 1.386.546.56 0 1.022-.182 1.386-.546.373-.374.56-.85.56-1.428 0-.579-.186-1.05-.56-1.414-.364-.374-.826-.56-1.386-.56-.56 0-1.022.186-1.386.56-.364.364-.546.835-.546 1.414 0 .578.182 1.054.546 1.428zm7.938-.686c.242.877.9 1.316 1.974 1.316.691 0 1.213-.234 1.568-.7l1.456.84c-.691.998-1.708 1.498-3.052 1.498-1.157 0-2.086-.35-2.786-1.05-.7-.7-1.05-1.582-1.05-2.646 0-1.055.345-1.932 1.036-2.632.69-.71 1.577-1.064 2.66-1.064 1.027 0 1.871.354 2.534 1.064.672.709 1.008 1.586 1.008 2.632 0 .233-.023.48-.07.742h-5.278zm-.028-1.4h3.57c-.103-.476-.317-.831-.644-1.064a1.79 1.79 0 00-1.092-.35c-.486 0-.887.126-1.204.378-.318.242-.528.588-.63 1.036zm-46.021 21.158l-.588-1.764h-3.906l-.588 1.764h-2.086l3.43-9.8h2.394l3.444 9.8h-2.1zm-3.878-3.57h2.688l-1.344-4.004-1.344 4.004zm10.406-4.69c-.99-.075-1.484.322-1.484 1.19v.07h1.484v1.736H57.07v5.264h-1.806v-5.264h-1.008v-1.736h1.008v-.07c0-.99.275-1.741.826-2.254.55-.514 1.372-.738 2.464-.672v1.736zm5.05 2.996h-1.581v2.912c0 .242.06.42.182.532.121.112.298.177.532.196.233.009.522.004.868-.014v1.638c-1.242.14-2.119.023-2.632-.35-.504-.374-.756-1.041-.756-2.002v-2.912h-1.218v-1.736h1.218v-1.414l1.806-.546v1.96h1.582v1.736zm2.581 2.506c.243.877.9 1.316 1.974 1.316.69 0 1.214-.234 1.568-.7l1.456.84c-.69.998-1.708 1.498-3.052 1.498-1.157 0-2.086-.35-2.786-1.05-.7-.7-1.05-1.582-1.05-2.646 0-1.055.346-1.932 1.036-2.632.69-.71 1.578-1.064 2.66-1.064 1.027 0 1.872.354 2.534 1.064.672.709 1.008 1.586 1.008 2.632 0 .233-.023.48-.07.742h-5.278zm-.028-1.4h3.57c-.102-.476-.317-.831-.644-1.064a1.79 1.79 0 00-1.092-.35c-.485 0-.886.126-1.204.378-.317.242-.527.588-.63 1.036zm8.443-1.638c.168-.448.443-.784.826-1.008a2.578 2.578 0 011.302-.336v2.016a2.144 2.144 0 00-1.484.336c-.43.289-.644.77-.644 1.442v3.346h-1.806v-7H74.6v1.204zm8.7 3.948h4.13v1.848h-6.062v-9.8h5.992v1.848H83.3v2.086h3.71v1.82H83.3v2.198zm13.052-6.552c-.99-.075-1.484.322-1.484 1.19v.21h1.484v1.736h-1.484v5.264h-1.806v-5.264H90.99v5.264h-1.806v-5.264h-1.008v-1.736h1.008v-.07c0-.99.275-1.741.826-2.254.55-.514 1.372-.738 2.464-.672v1.736c-.99-.075-1.484.322-1.484 1.19v.07h2.072v-.21c0-.99.275-1.741.826-2.254.56-.514 1.381-.738 2.464-.672v1.736zm2.099 5.642c.243.877.9 1.316 1.974 1.316.691 0 1.213-.234 1.568-.7l1.456.84c-.691.998-1.708 1.498-3.052 1.498-1.157 0-2.086-.35-2.786-1.05-.7-.7-1.05-1.582-1.05-2.646 0-1.055.345-1.932 1.036-2.632.69-.71 1.577-1.064 2.66-1.064 1.027 0 1.871.354 2.534 1.064.672.709 1.008 1.586 1.008 2.632 0 .233-.023.48-.07.742h-5.278zm-.028-1.4h3.57c-.103-.476-.317-.831-.644-1.064a1.79 1.79 0 00-1.092-.35c-.486 0-.887.126-1.204.378-.317.242-.528.588-.63 1.036zm9.914 4.354c-1.055 0-1.937-.355-2.646-1.064-.7-.71-1.05-1.587-1.05-2.632 0-1.046.35-1.923 1.05-2.632.709-.71 1.591-1.064 2.646-1.064.681 0 1.302.163 1.862.49.56.326.985.765 1.274 1.316l-1.554.91a1.572 1.572 0 00-.644-.686 1.813 1.813 0 00-.952-.252c-.541 0-.989.182-1.344.546-.355.354-.532.812-.532 1.372 0 .55.177 1.008.532 1.372.355.354.803.532 1.344.532.364 0 .686-.08.966-.238.289-.168.504-.397.644-.686l1.568.896c-.308.55-.742.994-1.302 1.33-.56.326-1.181.49-1.862.49zm8.123-5.46h-1.582v2.912c0 .242.061.42.182.532.121.112.299.177.532.196.233.009.523.004.868-.014v1.638c-1.241.14-2.119.023-2.632-.35-.504-.374-.756-1.041-.756-2.002v-2.912h-1.218v-1.736h1.218v-1.414l1.806-.546v1.96h1.582v1.736zm2.789.252c0 .186.121.34.364.462.252.112.555.214.91.308a7.78 7.78 0 011.064.336c.355.13.653.354.896.672.252.317.378.714.378 1.19 0 .718-.271 1.274-.812 1.666-.532.382-1.199.574-2.002.574-1.437 0-2.417-.556-2.94-1.666l1.568-.882c.205.606.663.91 1.372.91.644 0 .966-.201.966-.602 0-.187-.126-.336-.378-.448a4.623 4.623 0 00-.896-.322 9.578 9.578 0 01-1.064-.35 2.267 2.267 0 01-.91-.658c-.243-.308-.364-.691-.364-1.148 0-.691.252-1.232.756-1.624.513-.402 1.148-.602 1.904-.602.569 0 1.087.13 1.554.392.467.252.835.616 1.106 1.092l-1.54.84c-.224-.476-.597-.714-1.12-.714a1.06 1.06 0 00-.588.154.483.483 0 00-.224.42z" fill="#828282"/><path d="M43.07 4.454h81.761v81.005h-81.76V4.454z" fill="url(#cpaint0_radial)"/><path d="M43.07 4.454h81.761v81.005h-81.76V4.454zm-3.715 84.788h89.209V.67h-89.21v88.572zm63.111-45.878c1.894 0 2.572 0 2.751-.072 0-.273.071-.455.071-.637 0-2.038-.964-5.821-4.823-5.821-3.572 0-5.09 3.183-5.466 6.549h7.467v-.019zm-7.538 5.185c.071 5.112 2.447 8.55 8.11 8.55 2.197 0 4.09-.31 6.055-1.165.268-.109.447-.072.447.273v4.73c0 .382-.107.564-.375.764-1.965.982-4.43 1.437-7.467 1.437-9.807 0-13.487-7.386-13.487-15.59 0-8.931 4.537-16.244 12.522-16.244 8.11 0 10.933 6.93 10.933 12.57 0 1.819-.108 3.292-.304 4.02-.071.31-.179.418-.482.491-.751.11-2.93.273-6.199.273h-9.735v-.11h-.018zm-19.936-3.857c-1.036-4.202-3.572-13.352-4.501-17.79h-.072c-.786 4.42-2.822 11.915-4.34 17.79h8.913zm-10.432 6.13l-2.93 11.316c-.071.309-.178.418-.553.418h-5.484c-.376 0-.447-.11-.376-.564L65.775 24.41c.178-.673.303-1.218.375-3.11 0-.273.107-.382.304-.382h7.806c.268 0 .375.072.446.382l11.808 40.766c.072.31 0 .491-.304.491h-6.127c-.303 0-.482-.11-.553-.382l-3.055-11.351H64.56z" fill="#D8A1FF"/><path d="M12.214 183.86c.3-.92 1.602-.92 1.902 0l1.75 5.374a1 1 0 00.952.69h5.66c.97 0 1.372 1.241.587 1.81l-4.575 3.315a1 1 0 00-.364 1.119l1.749 5.367c.3.921-.753 1.688-1.538 1.12l-4.585-3.323a1.002 1.002 0 00-1.174 0l-4.585 3.323c-.785.568-1.838-.199-1.538-1.12l1.749-5.367a1 1 0 00-.364-1.119l-4.575-3.315c-.785-.569-.383-1.81.587-1.81h5.66a1 1 0 00.951-.69l1.751-5.374zM47.312 183.86c.3-.921 1.601-.921 1.901 0l1.751 5.374a1 1 0 00.951.69h5.66c.97 0 1.372 1.241.587 1.81l-4.574 3.315a.999.999 0 00-.364 1.119l1.748 5.367c.3.921-.753 1.688-1.538 1.119l-4.585-3.322a.999.999 0 00-1.173 0l-4.586 3.322c-.784.569-1.838-.198-1.538-1.119l1.75-5.367a1 1 0 00-.365-1.119l-4.575-3.315c-.785-.569-.383-1.81.587-1.81h5.66a1 1 0 00.951-.69l1.752-5.374zM82.409 183.86c.3-.921 1.601-.921 1.901 0l1.751 5.374a1 1 0 00.951.69h5.66c.97 0 1.373 1.241.588 1.81l-4.575 3.315a.999.999 0 00-.364 1.119l1.748 5.367c.3.921-.753 1.688-1.537 1.119l-4.586-3.322a.999.999 0 00-1.173 0l-4.586 3.322c-.784.569-1.837-.198-1.537-1.119l1.748-5.367a.999.999 0 00-.364-1.119l-4.575-3.315c-.785-.569-.382-1.81.587-1.81h5.66a1 1 0 00.952-.69l1.75-5.374zM117.506 183.86c.3-.921 1.602-.921 1.901 0l1.752 5.374c.134.412.517.69.95.69h5.661c.969 0 1.372 1.241.587 1.81l-4.575 3.315a.997.997 0 00-.364 1.119l1.748 5.367c.3.921-.753 1.688-1.537 1.119l-4.586-3.322a.998.998 0 00-1.173 0l-4.586 3.322c-.784.569-1.837-.198-1.537-1.119l1.748-5.367a.997.997 0 00-.364-1.119l-4.575-3.315c-.785-.569-.382-1.81.587-1.81h5.661a1 1 0 00.951-.69l1.751-5.374z" fill="#070707"/><path d="M152.603 183.86c.3-.921 1.602-.921 1.902 0l1.751 5.374a1 1 0 00.95.69h5.661c.97 0 1.372 1.241.587 1.81l-4.575 3.315a1 1 0 00-.364 1.119l1.749 5.367c.3.921-.754 1.688-1.538 1.119l-4.585-3.322a1 1 0 00-1.174 0l-4.585 3.322c-.785.569-1.838-.198-1.538-1.119l1.749-5.367a1 1 0 00-.365-1.119l-4.574-3.315c-.785-.569-.383-1.81.586-1.81h5.661a1 1 0 00.951-.69l1.751-5.374z" fill="#E5E5E5"/><defs><radialGradient id="cpaint0_radial" cx="0" cy="0" r="1" gradientUnits="userSpaceOnUse" gradientTransform="matrix(62.1407 0 0 61.2673 70.023 22.615)"><stop stop-color="#442F55" stop-opacity=".98"/><stop offset="1" stop-color="#12002C"/></radialGradient></defs></svg><svg fill="none" viewBox="0 0 168 206" id="Group_7" xmlns="http://www.w3.org/2000/svg"><path d="M72.79 116.29h-3.92v2.324h3.808v1.848H68.87v3.78h-1.932v-9.8h5.852v1.848zm2.22.112a1.096 1.096 0 01-1.107-1.106c0-.298.108-.56.322-.784.224-.224.486-.336.784-.336.308 0 .57.112.784.336.224.224.336.486.336.784 0 .299-.112.56-.336.784a1.066 1.066 0 01-.784.322zm-.897 7.84v-7h1.806v7h-1.806zm8.821-7h1.764v6.664c0 1.083-.359 1.909-1.078 2.478-.709.57-1.568.854-2.576.854-.756 0-1.423-.144-2.002-.434a3.04 3.04 0 01-1.316-1.274l1.54-.882c.355.654.966.98 1.834.98.57 0 1.018-.149 1.344-.448.327-.298.49-.723.49-1.274v-.756c-.532.71-1.278 1.064-2.24 1.064-.989 0-1.82-.345-2.492-1.036-.662-.7-.994-1.549-.994-2.548 0-.989.336-1.834 1.008-2.534.672-.7 1.498-1.05 2.478-1.05.962 0 1.708.355 2.24 1.064v-.868zm-3.374 4.774c.374.355.845.532 1.414.532.57 0 1.036-.177 1.4-.532.374-.364.56-.826.56-1.386 0-.55-.186-1.003-.56-1.358-.364-.364-.83-.546-1.4-.546-.569 0-1.04.182-1.414.546-.364.355-.546.808-.546 1.358 0 .56.182 1.022.546 1.386zm14.518-4.97c.803 0 1.442.262 1.918.784.485.523.728 1.223.728 2.1v4.312h-1.806v-4.186c0-.42-.103-.746-.308-.98-.205-.233-.495-.35-.868-.35-.41 0-.733.136-.966.406-.224.271-.336.663-.336 1.176v3.934h-1.806v-4.186c0-.42-.103-.746-.308-.98-.205-.233-.495-.35-.868-.35-.401 0-.723.136-.966.406-.233.271-.35.663-.35 1.176v3.934h-1.806v-7h1.806v.742c.42-.625 1.069-.938 1.946-.938.859 0 1.493.336 1.904 1.008.467-.672 1.162-1.008 2.086-1.008zm9.5.196h1.806v7h-1.806v-.826c-.541.682-1.302 1.022-2.282 1.022-.933 0-1.736-.354-2.408-1.064-.663-.718-.994-1.596-.994-2.632s.331-1.908.994-2.618c.672-.718 1.475-1.078 2.408-1.078.98 0 1.741.341 2.282 1.022v-.826zm-3.332 4.928c.364.364.826.546 1.386.546.56 0 1.022-.182 1.386-.546.373-.373.56-.849.56-1.428 0-.578-.187-1.05-.56-1.414-.364-.373-.826-.56-1.386-.56-.56 0-1.022.187-1.386.56-.364.364-.546.836-.546 1.414 0 .579.182 1.055.546 1.428z" fill="#828282"/><g clip-path="url(#dclip0)"><path d="M72.051 89.66c8.039 0 14.559-6.64 14.559-14.825V60.009H72.051c-8.038 0-14.558 6.64-14.558 14.826S64.013 89.66 72.05 89.66z" fill="#0ACF83"/><path d="M57.493 45.165c0-8.186 6.52-14.825 14.558-14.825H86.61v29.67H72.051c-8.038-.02-14.558-6.659-14.558-14.845z" fill="#A259FF"/><path d="M57.493 15.496C57.493 7.31 64.013.67 72.05.67H86.61v29.67H72.051c-8.038 0-14.558-6.658-14.558-14.844z" fill="#F24E1E"/><path d="M86.628.67h14.558c8.039 0 14.559 6.64 14.559 14.826s-6.52 14.825-14.559 14.825H86.628V.67z" fill="#FF7262"/><path d="M115.745 45.165c0 8.186-6.52 14.826-14.559 14.826-8.038 0-14.558-6.64-14.558-14.826s6.52-14.825 14.558-14.825c8.039 0 14.559 6.64 14.559 14.825z" fill="#1ABCFE"/></g><path d="M12.925 182.86c.3-.92 1.602-.92 1.902 0l1.75 5.374a1 1 0 00.952.69h5.66c.97 0 1.372 1.241.587 1.81l-4.575 3.315a1 1 0 00-.364 1.119l1.749 5.367c.3.921-.753 1.688-1.538 1.12l-4.585-3.323a1.002 1.002 0 00-1.174 0l-4.585 3.323c-.785.568-1.838-.199-1.538-1.12l1.749-5.367a1 1 0 00-.364-1.119l-4.575-3.315c-.785-.569-.383-1.81.586-1.81h5.661a1 1 0 00.951-.69l1.751-5.374zM48.022 182.86c.3-.92 1.602-.92 1.902 0l1.75 5.374a1 1 0 00.952.69h5.66c.97 0 1.372 1.241.587 1.81l-4.575 3.315a1 1 0 00-.364 1.119l1.749 5.367c.3.921-.754 1.688-1.538 1.12l-4.585-3.323a1.002 1.002 0 00-1.174 0l-4.585 3.323c-.785.568-1.838-.199-1.538-1.12l1.749-5.367a1 1 0 00-.364-1.119l-4.575-3.315c-.785-.569-.383-1.81.587-1.81h5.66a1 1 0 00.951-.69l1.751-5.374zM83.12 182.86c.3-.92 1.601-.92 1.9 0l1.752 5.374a1 1 0 00.95.69h5.662c.969 0 1.371 1.241.586 1.81l-4.575 3.315a1 1 0 00-.364 1.119l1.749 5.367c.3.921-.753 1.688-1.538 1.12l-4.585-3.323a1.002 1.002 0 00-1.174 0l-4.585 3.323c-.784.568-1.838-.199-1.538-1.12l1.749-5.367a1 1 0 00-.364-1.119l-4.575-3.315c-.785-.569-.383-1.81.587-1.81h5.66a1 1 0 00.951-.69l1.751-5.374zM118.216 182.86c.3-.92 1.602-.92 1.902 0l1.751 5.374a1 1 0 00.951.69h5.661c.969 0 1.371 1.241.586 1.81l-4.575 3.315a1.001 1.001 0 00-.364 1.119l1.749 5.367c.3.921-.753 1.688-1.538 1.12l-4.585-3.323a1.003 1.003 0 00-1.174 0l-4.585 3.323c-.784.568-1.838-.199-1.538-1.12l1.749-5.367a1.001 1.001 0 00-.364-1.119l-4.575-3.315c-.785-.569-.383-1.81.587-1.81h5.66a1 1 0 00.951-.69l1.751-5.374z" fill="#070707"/><path d="M153.314 182.86c.299-.92 1.601-.92 1.901 0l1.751 5.374a1 1 0 00.951.69h5.661c.969 0 1.372 1.241.587 1.81l-4.575 3.315a.998.998 0 00-.364 1.119l1.748 5.367c.3.921-.753 1.688-1.537 1.12l-4.586-3.323a1.001 1.001 0 00-1.173 0l-4.586 3.323c-.784.568-1.837-.199-1.537-1.12l1.748-5.367a.998.998 0 00-.364-1.119l-4.575-3.315c-.785-.569-.382-1.81.587-1.81h5.661a.998.998 0 00.95-.69l1.752-5.374z" fill="#E5E5E5"/><defs><clipPath id="dclip0"><path fill="#fff" transform="translate(57.493 .67)" d="M0 0h58.252v88.991H0z"/></clipPath></defs></svg><svg fill="none" viewBox="0 0 208 78" id="btn" xmlns="http://www.w3.org/2000/svg"><g filter="url(#efilter0_i)"><path fill-rule="evenodd" clip-rule="evenodd" d="M193.257 31c0 11.55-9.417 21-20.928 21H33.685c-11.51 0-20.928-9.45-20.928-21s9.418-21 20.928-21h138.644c11.641 0 20.928 9.45 20.928 21z" fill="#070707"/><g opacity=".1" filter="url(#efilter1_f)"><path fill-rule="evenodd" clip-rule="evenodd" d="M187.24 39c0 10.45-8.685 19-19.299 19H40.079c-10.614 0-19.3-8.55-19.3-19s8.686-19 19.3-19h127.862c10.735 0 19.299 8.55 19.299 19z" fill="#070707"/></g><path d="M46.603 37.252c-1.248 0-2.298-.276-3.15-.828a4.523 4.523 0 01-1.8-2.286l2.124-1.242c.492 1.284 1.458 1.926 2.898 1.926.696 0 1.206-.126 1.53-.378.324-.252.486-.57.486-.954 0-.444-.198-.786-.594-1.026-.396-.252-1.104-.522-2.124-.81a13.906 13.906 0 01-1.44-.504 6.88 6.88 0 01-1.17-.666 2.855 2.855 0 01-.882-1.08c-.204-.432-.306-.936-.306-1.512 0-1.14.402-2.046 1.206-2.718.816-.684 1.794-1.026 2.934-1.026 1.02 0 1.914.252 2.682.756.78.492 1.386 1.182 1.818 2.07l-2.088 1.206c-.504-1.08-1.308-1.62-2.412-1.62-.516 0-.924.12-1.224.36a1.092 1.092 0 00-.432.9c0 .396.162.72.486.972.336.24.972.504 1.908.792.384.12.672.216.864.288.204.06.474.162.81.306.348.132.612.258.792.378.192.12.408.282.648.486.24.204.42.414.54.63.132.216.24.48.324.792.096.3.144.63.144.99 0 1.164-.426 2.088-1.278 2.772-.84.684-1.938 1.026-3.294 1.026zm8.292-3.798c.313 1.128 1.158 1.692 2.538 1.692.889 0 1.56-.3 2.017-.9l1.871 1.08c-.887 1.284-2.195 1.926-3.923 1.926-1.489 0-2.683-.45-3.583-1.35-.9-.9-1.35-2.034-1.35-3.402 0-1.356.444-2.484 1.332-3.384.889-.912 2.029-1.368 3.42-1.368 1.32 0 2.407.456 3.258 1.368.864.912 1.297 2.04 1.297 3.384 0 .3-.03.618-.09.954h-6.787zm-.036-1.8h4.59c-.131-.612-.407-1.068-.828-1.368-.407-.3-.876-.45-1.404-.45-.623 0-1.14.162-1.547.486-.409.312-.678.756-.81 1.332zm13.538-3.906c.983 0 1.793.33 2.43.99.648.66.972 1.572.972 2.736V37h-2.323v-5.238c0-.6-.162-1.056-.486-1.368-.323-.324-.755-.486-1.295-.486-.6 0-1.08.186-1.44.558-.36.372-.54.93-.54 1.674V37h-2.323v-9h2.322v1.008c.564-.84 1.459-1.26 2.683-1.26zM80.603 24.4h2.322V37h-2.322v-1.062c-.684.876-1.656 1.314-2.916 1.314-1.212 0-2.25-.456-3.114-1.368-.852-.924-1.278-2.052-1.278-3.384 0-1.332.426-2.454 1.278-3.366.864-.924 1.902-1.386 3.114-1.386 1.26 0 2.232.438 2.916 1.314V24.4zm-4.284 9.936c.48.468 1.08.702 1.8.702s1.314-.234 1.782-.702c.468-.48.702-1.092.702-1.836s-.234-1.35-.702-1.818c-.468-.48-1.062-.72-1.782-.72s-1.32.24-1.8.72c-.468.468-.702 1.074-.702 1.818s.234 1.356.702 1.836zm23.184-6.588c1.032 0 1.854.336 2.466 1.008.624.672.936 1.572.936 2.7V37h-2.322v-5.382c0-.54-.132-.96-.396-1.26-.264-.3-.636-.45-1.116-.45-.528 0-.942.174-1.242.522-.288.348-.432.852-.432 1.512V37h-2.322v-5.382c0-.54-.132-.96-.396-1.26-.264-.3-.636-.45-1.116-.45-.516 0-.93.174-1.242.522-.3.348-.45.852-.45 1.512V37h-2.322v-9h2.322v.954c.54-.804 1.374-1.206 2.502-1.206 1.104 0 1.92.432 2.448 1.296.6-.864 1.494-1.296 2.682-1.296zm7.336 5.706c.312 1.128 1.158 1.692 2.538 1.692.888 0 1.56-.3 2.016-.9l1.872 1.08c-.888 1.284-2.196 1.926-3.924 1.926-1.488 0-2.682-.45-3.582-1.35-.9-.9-1.35-2.034-1.35-3.402 0-1.356.444-2.484 1.332-3.384.888-.912 2.028-1.368 3.42-1.368 1.32 0 2.406.456 3.258 1.368.864.912 1.296 2.04 1.296 3.384 0 .3-.03.618-.09.954h-6.786zm-.036-1.8h4.59c-.132-.612-.408-1.068-.828-1.368-.408-.3-.876-.45-1.404-.45-.624 0-1.14.162-1.548.486-.408.312-.678.756-.81 1.332zm10.323-1.098c0 .24.156.438.468.594a7.79 7.79 0 001.17.396c.456.108.912.252 1.368.432.456.168.84.456 1.152.864.324.408.486.918.486 1.53 0 .924-.348 1.638-1.044 2.142-.684.492-1.542.738-2.574.738-1.848 0-3.108-.714-3.78-2.142l2.016-1.134c.264.78.852 1.17 1.764 1.17.828 0 1.242-.258 1.242-.774 0-.24-.162-.432-.486-.576a6.03 6.03 0 00-1.152-.414c-.456-.12-.912-.27-1.368-.45a2.909 2.909 0 01-1.17-.846c-.312-.396-.468-.888-.468-1.476 0-.888.324-1.584.972-2.088.66-.516 1.476-.774 2.448-.774.732 0 1.398.168 1.998.504.6.324 1.074.792 1.422 1.404l-1.98 1.08c-.288-.612-.768-.918-1.44-.918-.3 0-.552.066-.756.198a.622.622 0 00-.288.54zm7.805 0c0 .24.156.438.468.594a7.79 7.79 0 001.17.396c.456.108.912.252 1.368.432.456.168.84.456 1.152.864.324.408.486.918.486 1.53 0 .924-.348 1.638-1.044 2.142-.684.492-1.542.738-2.574.738-1.848 0-3.108-.714-3.78-2.142l2.016-1.134c.264.78.852 1.17 1.764 1.17.828 0 1.242-.258 1.242-.774 0-.24-.162-.432-.486-.576a6.03 6.03 0 00-1.152-.414c-.456-.12-.912-.27-1.368-.45a2.909 2.909 0 01-1.17-.846c-.312-.396-.468-.888-.468-1.476 0-.888.324-1.584.972-2.088.66-.516 1.476-.774 2.448-.774.732 0 1.398.168 1.998.504.6.324 1.074.792 1.422 1.404l-1.98 1.08c-.288-.612-.768-.918-1.44-.918-.3 0-.552.066-.756.198a.622.622 0 00-.288.54zM137.785 28h2.322v9h-2.322v-1.062c-.696.876-1.674 1.314-2.934 1.314-1.2 0-2.232-.456-3.096-1.368-.852-.924-1.278-2.052-1.278-3.384 0-1.332.426-2.454 1.278-3.366.864-.924 1.896-1.386 3.096-1.386 1.26 0 2.238.438 2.934 1.314V28zm-4.284 6.336c.468.468 1.062.702 1.782.702s1.314-.234 1.782-.702c.48-.48.72-1.092.72-1.836s-.24-1.35-.72-1.818c-.468-.48-1.062-.72-1.782-.72s-1.314.24-1.782.72c-.468.468-.702 1.074-.702 1.818s.234 1.356.702 1.836zM149.107 28h2.268v8.568c0 1.392-.462 2.454-1.386 3.186-.912.732-2.016 1.098-3.312 1.098-.972 0-1.83-.186-2.574-.558a3.912 3.912 0 01-1.692-1.638l1.98-1.134c.456.84 1.242 1.26 2.358 1.26.732 0 1.308-.192 1.728-.576.42-.384.63-.93.63-1.638v-.972c-.684.912-1.644 1.368-2.88 1.368-1.272 0-2.34-.444-3.204-1.332-.852-.9-1.278-1.992-1.278-3.276 0-1.272.432-2.358 1.296-3.258.864-.9 1.926-1.35 3.186-1.35 1.236 0 2.196.456 2.88 1.368V28zm-4.338 6.138c.48.456 1.086.684 1.818.684s1.332-.228 1.8-.684c.48-.468.72-1.062.72-1.782 0-.708-.24-1.29-.72-1.746-.468-.468-1.068-.702-1.8-.702s-1.338.234-1.818.702c-.468.456-.702 1.038-.702 1.746 0 .72.234 1.314.702 1.782zm10.673-.684c.312 1.128 1.158 1.692 2.538 1.692.888 0 1.56-.3 2.016-.9l1.872 1.08c-.888 1.284-2.196 1.926-3.924 1.926-1.488 0-2.682-.45-3.582-1.35-.9-.9-1.35-2.034-1.35-3.402 0-1.356.444-2.484 1.332-3.384.888-.912 2.028-1.368 3.42-1.368 1.32 0 2.406.456 3.258 1.368.864.912 1.296 2.04 1.296 3.384 0 .3-.03.618-.09.954h-6.786zm-.036-1.8h4.59c-.132-.612-.408-1.068-.828-1.368-.408-.3-.876-.45-1.404-.45-.624 0-1.14.162-1.548.486-.408.312-.678.756-.81 1.332z" fill="#fff"/></g><defs><filter id="efilter0_i" x="12.757" y="10" width="180.5" height="52" filterUnits="userSpaceOnUse" color-interpolation-filters="sRGB"><feFlood flood-opacity="0" result="BackgroundImageFix"/><feBlend in="SourceGraphic" in2="BackgroundImageFix" result="shape"/><feColorMatrix in="SourceAlpha" values="0 0 0 0 0 0 0 0 0 0 0 0 0 0 0 0 0 0 127 0" result="hardAlpha"/><feOffset dy="4"/><feGaussianBlur stdDeviation="2"/><feComposite in2="hardAlpha" operator="arithmetic" k2="-1" k3="1"/><feColorMatrix values="0 0 0 0 0 0 0 0 0 0 0 0 0 0 0 0 0 0 0.25 0"/><feBlend in2="shape" result="effect1_innerShadow"/></filter><filter id="efilter1_f" x=".78" y="0" width="206.461" height="78" filterUnits="userSpaceOnUse" color-interpolation-filters="sRGB"><feFlood flood-opacity="0" result="BackgroundImageFix"/><feBlend in="SourceGraphic" in2="BackgroundImageFix" result="shape"/><feGaussianBlur stdDeviation="10" result="effect1_foregroundBlur"/></filter></defs></svg></svg>